<svg width="32" height="32" viewBox="0 0 32 32" fill="none" xmlns="http://www.w3.org/2000/svg">
<path d="M30.48 6.10002V1.52002H25.91V3.05002H6.10002V1.52002H1.52002V6.10002H3.05002V25.91H1.52002V30.48H6.10002V28.95H25.91V30.48H30.48V25.91H28.95V6.10002H30.48ZM27.43 25.91H25.91V27.43H6.10002V25.91H4.57002V6.10002H6.10002V4.57002H25.91V6.10002H27.43V25.91Z" fill="#000001"/>
<path d="M22.8601 9.14014H21.3301V12.1901H22.8601V9.14014Z" fill="#000001"/>
<path d="M10.6699 7.62012V9.14012H15.2399V22.8601H12.1899V24.3801H19.8099V22.8601H16.7599V9.14012H21.3299V7.62012H10.6699Z" fill="#000001"/>
<path d="M10.6701 9.14014H9.14014V12.1901H10.6701V9.14014Z" fill="#000001"/>
</svg>
