<svg width="32" height="32" viewBox="0 0 32 32" fill="none" xmlns="http://www.w3.org/2000/svg">
<g clip-path="url(#clip0_5643_16818)">
<path d="M32 14.4751H30.48V20.5651H32V14.4751Z" fill="#000001"/>
<path d="M32 3.80518H30.48V9.90518H32V3.80518Z" fill="#000001"/>
<path d="M30.48 20.5649H28.95V23.6149H30.48V20.5649Z" fill="#000001"/>
<path d="M30.48 9.90527H28.95V14.4753H30.48V9.90527Z" fill="#000001"/>
<path d="M28.95 23.6152H27.43V25.1352H28.95V23.6152Z" fill="#000001"/>
<path d="M28.95 8.375H27.43V9.905H28.95V8.375Z" fill="#000001"/>
<path d="M27.43 25.1353H25.91V26.6653H27.43V25.1353Z" fill="#000001"/>
<path d="M27.43 6.85498H25.91V8.37498H27.43V6.85498Z" fill="#000001"/>
<path d="M30.48 2.28516H22.86V3.80516H30.48V2.28516Z" fill="#000001"/>
<path d="M25.91 26.665H21.34V28.185H25.91V26.665Z" fill="#000001"/>
<path d="M22.86 3.80518H21.34V5.32518H22.86V3.80518Z" fill="#000001"/>
<path d="M21.34 16H10.67V17.52H9.15002V22.1H10.67V23.62H21.34V22.1H22.86V17.52H21.34V16ZM15.24 22.1H12.19V19.05H15.24V22.1ZM19.81 22.1H16.76V19.05H19.81V22.1Z" fill="#000001"/>
<path d="M21.34 28.1851H10.67V29.7151H21.34V28.1851Z" fill="#000001"/>
<path d="M19.81 12.9453H18.29V14.4753H19.81V12.9453Z" fill="#000001"/>
<path d="M13.72 12.9453H12.19V14.4753H13.72V12.9453Z" fill="#000001"/>
<path d="M21.34 2.28516H10.67V3.80516H21.34V2.28516Z" fill="#000001"/>
<path d="M10.67 26.665H6.09998V28.185H10.67V26.665Z" fill="#000001"/>
<path d="M10.67 3.80518H9.15002V5.32518H10.67V3.80518Z" fill="#000001"/>
<path d="M6.10001 25.1353H4.57001V26.6653H6.10001V25.1353Z" fill="#000001"/>
<path d="M6.10001 6.85498H4.57001V8.37498H6.10001V6.85498Z" fill="#000001"/>
<path d="M4.56999 23.6152H3.04999V25.1352H4.56999V23.6152Z" fill="#000001"/>
<path d="M4.56999 8.375H3.04999V9.905H4.56999V8.375Z" fill="#000001"/>
<path d="M9.15003 2.28516H1.53003V3.80516H9.15003V2.28516Z" fill="#000001"/>
<path d="M3.05003 20.5649H1.53003V23.6149H3.05003V20.5649Z" fill="#000001"/>
<path d="M3.05003 9.90527H1.53003V14.4753H3.05003V9.90527Z" fill="#000001"/>
<path d="M1.53 14.4751H0V20.5651H1.53V14.4751Z" fill="#000001"/>
<path d="M1.53 3.80518H0V9.90518H1.53V3.80518Z" fill="#000001"/>
</g>
<defs>
<clipPath id="clip0_5643_16818">
<rect width="32" height="32" fill="white"/>
</clipPath>
</defs>
</svg>
