<svg width="32" height="32" viewBox="0 0 32 32" fill="none" xmlns="http://www.w3.org/2000/svg">
<g clip-path="url(#clip0_5643_17629)">
<path d="M19.05 13.7196V15.2396H20.57V21.3396H22.09V15.2396H29.71V24.3796H31.24V7.61963H29.71V13.7196H19.05Z" fill="#000001"/>
<path d="M29.7099 24.3799H28.1899V25.9099H29.7099V24.3799Z" fill="#000001"/>
<path d="M29.7099 6.09961H28.1899V7.61961H29.7099V6.09961Z" fill="#000001"/>
<path d="M28.1899 9.1499H26.6699V10.6699H28.1899V9.1499Z" fill="#000001"/>
<path d="M28.1901 25.9097H3.81006V27.4297H28.1901V25.9097Z" fill="#000001"/>
<path d="M26.6701 10.6699H22.0901V12.1899H26.6701V10.6699Z" fill="#000001"/>
<path d="M26.6701 7.61963H22.0901V9.14963H26.6701V7.61963Z" fill="#000001"/>
<path d="M22.0901 9.1499H20.5701V10.6699H22.0901V9.1499Z" fill="#000001"/>
<path d="M20.57 21.3398H19.05V22.8598H20.57V21.3398Z" fill="#000001"/>
<path d="M28.19 4.56982H17.52V6.09982H28.19V4.56982Z" fill="#000001"/>
<path d="M14.48 21.3397H17.52V19.8097H19.05V16.7597H17.52V18.2897H16V16.7597H17.52V15.2397H14.48V16.7597H12.95V19.8097H14.48V21.3397Z" fill="#000001"/>
<path d="M19.05 12.1899H12.95V13.7199H19.05V12.1899Z" fill="#000001"/>
<path d="M19.05 22.8599H12.95V24.3799H19.05V22.8599Z" fill="#000001"/>
<path d="M17.52 6.09961H16V7.61961H17.52V6.09961Z" fill="#000001"/>
<path d="M12.9499 21.3398H11.4299V22.8598H12.9499V21.3398Z" fill="#000001"/>
<path d="M12.9501 4.56982H8.38013V6.09982H12.9501V4.56982Z" fill="#000001"/>
<path d="M8.38008 10.6699H5.33008V12.1899H8.38008V10.6699Z" fill="#000001"/>
<path d="M16.0001 9.14961V7.61961H14.4801V6.09961H12.9501V7.61961H8.38006V6.09961H6.86006V7.61961H3.81006V9.14961H16.0001Z" fill="#000001"/>
<path d="M3.81003 24.3799H2.28003V25.9099H3.81003V24.3799Z" fill="#000001"/>
<path d="M3.81003 9.1499H2.28003V10.6699H3.81003V9.1499Z" fill="#000001"/>
<path d="M2.28001 15.2399H9.90001V21.3399H11.43V15.2399H12.95V13.7199H2.28001V10.6699H0.76001V24.3799H2.28001V15.2399Z" fill="#000001"/>
</g>
<defs>
<clipPath id="clip0_5643_17629">
<rect width="32" height="32" fill="white"/>
</clipPath>
</defs>
</svg>
