<svg width="32" height="32" viewBox="0 0 32 32" fill="none" xmlns="http://www.w3.org/2000/svg">
<path d="M27.4302 7.62012H25.9102V15.2401H27.4302V7.62012Z" fill="#000001"/>
<path d="M25.9101 15.24H24.3801V18.28H25.9101V15.24Z" fill="#000001"/>
<path d="M25.9101 4.57007H24.3801V7.62007H25.9101V4.57007Z" fill="#000001"/>
<path d="M24.3801 18.28H22.8601V19.81H24.3801V18.28Z" fill="#000001"/>
<path d="M24.3801 3.05005H22.8601V4.57005H24.3801V3.05005Z" fill="#000001"/>
<path d="M22.8601 19.8101H19.8101V21.3301H22.8601V19.8101Z" fill="#000001"/>
<path d="M22.8601 1.52002H19.8101V3.05002H22.8601V1.52002Z" fill="#000001"/>
<path d="M12.1902 21.3301V22.8601H15.2402V27.4301H12.1902V28.9501H15.2402V32.0001H16.7602V28.9501H19.8102V27.4301H16.7602V22.8601H19.8102V21.3301H12.1902Z" fill="#000001"/>
<path d="M19.8102 0H12.1902V1.52H19.8102V0Z" fill="#000001"/>
<path d="M12.1901 19.8101H9.15015V21.3301H12.1901V19.8101Z" fill="#000001"/>
<path d="M12.1901 1.52002H9.15015V3.05002H12.1901V1.52002Z" fill="#000001"/>
<path d="M9.15012 18.28H7.62012V19.81H9.15012V18.28Z" fill="#000001"/>
<path d="M9.15012 3.05005H7.62012V4.57005H9.15012V3.05005Z" fill="#000001"/>
<path d="M7.6201 15.24H6.1001V18.28H7.6201V15.24Z" fill="#000001"/>
<path d="M7.6201 4.57007H6.1001V7.62007H7.6201V4.57007Z" fill="#000001"/>
<path d="M6.10007 7.62012H4.57007V15.2401H6.10007V7.62012Z" fill="#000001"/>
</svg>
