<svg width="32" height="32" viewBox="0 0 32 32" fill="none" xmlns="http://www.w3.org/2000/svg">
<path d="M25.14 22.8599V15.2399H26.67V12.1899H25.14V9.13989H23.62V22.8599H25.14Z" fill="#000001"/>
<path d="M23.62 22.8601H22.09V24.3801H23.62V22.8601Z" fill="#000001"/>
<path d="M23.62 7.62012H22.09V9.14012H23.62V7.62012Z" fill="#000001"/>
<path d="M22.0899 12.1899H20.5699V19.8099H22.0899V12.1899Z" fill="#000001"/>
<path d="M19.05 31.9999V30.4799H20.57V28.9499H22.09V27.4299H8.38V28.9499H9.9V30.4799H11.43V31.9999H19.05Z" fill="#000001"/>
<path d="M22.09 24.3799H8.38V25.8999H22.09V24.3799Z" fill="#000001"/>
<path d="M20.5699 19.8101H19.0499V21.3301H20.5699V19.8101Z" fill="#000001"/>
<path d="M20.5699 10.6699H19.0499V12.1899H20.5699V10.6699Z" fill="#000001"/>
<path d="M19.0499 13.71H17.5199V18.29H19.0499V13.71Z" fill="#000001"/>
<path d="M19.05 9.13989H14.48V10.6699H19.05V9.13989Z" fill="#000001"/>
<path d="M19.0499 21.3301H11.4299V22.8601H19.0499V21.3301Z" fill="#000001"/>
<path d="M17.52 12.1899H14.48V13.7099H17.52V12.1899Z" fill="#000001"/>
<path d="M17.52 18.29H12.95V19.81H17.52V18.29Z" fill="#000001"/>
<path d="M16 15.24H14.48V16.76H16V15.24Z" fill="#000001"/>
<path d="M11.4299 19.8101H9.8999V21.3301H11.4299V19.8101Z" fill="#000001"/>
<path d="M22.09 6.1001H8.38V7.6201H22.09V6.1001Z" fill="#000001"/>
<path d="M11.43 0V1.52H9.9V3.05H8.38V4.57H22.09V3.05H20.57V1.52H19.05V0H11.43Z" fill="#000001"/>
<path d="M8.37999 22.8601H6.85999V24.3801H8.37999V22.8601Z" fill="#000001"/>
<path d="M8.37999 7.62012H6.85999V9.14012H8.37999V7.62012Z" fill="#000001"/>
<path d="M6.85996 9.13989H5.32996V22.8599H6.85996V9.13989Z" fill="#000001"/>
</svg>
